<svg xmlns="http://www.w3.org/2000/svg" width="64" height="65" viewBox="0 0 64 65" fill="none">
  <g filter="url(#filter0_d_17801_10160)">
    <path d="M37.9599 12C44.0639 12 49.4968 13.7931 52.3881 16.3469L45.138 24.9864C43.0498 23.0303 39.9688 21.2372 35.6008 21.2372C32.5768 21.2372 29.9963 22.3783 29.5222 24.2801C29.1428 25.8015 29.9359 26.8882 35.1529 27.9749C45.755 30.1484 47.9002 33.8976 46.3829 39.9833C44.3778 48.0251 37.0022 53.3501 26.8102 53.3501C20.3702 53.3501 14.8523 51.4483 11.5465 47.8621L19.3719 39.3856C21.2994 42.2111 25.4173 44.1129 29.4493 44.1129C33.0893 44.1129 35.0113 42.9175 35.499 40.9614C35.9055 39.3313 35.0004 38.2446 29.7274 37.1578C19.1948 34.93 17.2546 30.5831 18.6907 24.8234C20.5061 17.5423 28.6079 12 37.9599 12Z" fill="white"/>
  </g>
  <defs>
    <filter id="filter0_d_17801_10160" x="0.206509" y="0.66" width="63.5216" height="64.0306" filterUnits="userSpaceOnUse" color-interpolation-filters="sRGB">
      <feFlood flood-opacity="0" result="BackgroundImageFix"/>
      <feColorMatrix in="SourceAlpha" type="matrix" values="0 0 0 0 0 0 0 0 0 0 0 0 0 0 0 0 0 0 127 0" result="hardAlpha"/>
      <feOffset/>
      <feGaussianBlur stdDeviation="5.67"/>
      <feComposite in2="hardAlpha" operator="out"/>
      <feColorMatrix type="matrix" values="0 0 0 0 0.0988146 0 0 0 0 0.235498 0 0 0 0 0.720101 0 0 0 0.5 0"/>
      <feBlend mode="normal" in2="BackgroundImageFix" result="effect1_dropShadow_17801_10160"/>
      <feBlend mode="normal" in="SourceGraphic" in2="effect1_dropShadow_17801_10160" result="shape"/>
    </filter>
  </defs>
</svg>
